<mxfile host="app.diagrams.net" modified="2024-06-05T19:47:50.140Z" agent="Mozilla/5.0 (Macintosh; Intel Mac OS X 10_15_7) AppleWebKit/605.1.15 (KHTML, like Gecko) Version/17.4.1 Safari/605.1.15" etag="sJHbfze49JNEqgshPXbJ" version="24.4.14" type="device">
  <diagram name="Page-1" id="xrO9s6z_Mi-pN333joac">
    <mxGraphModel dx="2460" dy="1668" grid="1" gridSize="10" guides="1" tooltips="1" connect="1" arrows="1" fold="1" page="1" pageScale="1" pageWidth="827" pageHeight="1169" math="0" shadow="0">
      <root>
        <mxCell id="0" />
        <mxCell id="1" parent="0" />
        <mxCell id="dnpu99OnODgVlYzdiIvO-42" value="view" style="shape=umlLifeline;perimeter=lifelinePerimeter;whiteSpace=wrap;html=1;container=0;dropTarget=0;collapsible=0;recursiveResize=0;outlineConnect=0;portConstraint=eastwest;newEdgeStyle={&quot;edgeStyle&quot;:&quot;elbowEdgeStyle&quot;,&quot;elbow&quot;:&quot;vertical&quot;,&quot;curved&quot;:0,&quot;rounded&quot;:0};" vertex="1" parent="1">
          <mxGeometry x="80" y="520" width="100" height="1680" as="geometry" />
        </mxCell>
        <mxCell id="dnpu99OnODgVlYzdiIvO-43" value="" style="html=1;points=[];perimeter=orthogonalPerimeter;outlineConnect=0;targetShapes=umlLifeline;portConstraint=eastwest;newEdgeStyle={&quot;edgeStyle&quot;:&quot;elbowEdgeStyle&quot;,&quot;elbow&quot;:&quot;vertical&quot;,&quot;curved&quot;:0,&quot;rounded&quot;:0};" vertex="1" parent="dnpu99OnODgVlYzdiIvO-42">
          <mxGeometry x="45" y="70" width="10" height="1170" as="geometry" />
        </mxCell>
        <mxCell id="dnpu99OnODgVlYzdiIvO-44" value="ClientMain" style="shape=umlLifeline;perimeter=lifelinePerimeter;whiteSpace=wrap;html=1;container=0;dropTarget=0;collapsible=0;recursiveResize=0;outlineConnect=0;portConstraint=eastwest;newEdgeStyle={&quot;edgeStyle&quot;:&quot;elbowEdgeStyle&quot;,&quot;elbow&quot;:&quot;vertical&quot;,&quot;curved&quot;:0,&quot;rounded&quot;:0};" vertex="1" parent="1">
          <mxGeometry x="250" y="520" width="100" height="1680" as="geometry" />
        </mxCell>
        <mxCell id="dnpu99OnODgVlYzdiIvO-45" value="" style="html=1;points=[];perimeter=orthogonalPerimeter;outlineConnect=0;targetShapes=umlLifeline;portConstraint=eastwest;newEdgeStyle={&quot;edgeStyle&quot;:&quot;elbowEdgeStyle&quot;,&quot;elbow&quot;:&quot;vertical&quot;,&quot;curved&quot;:0,&quot;rounded&quot;:0};" vertex="1" parent="dnpu99OnODgVlYzdiIvO-44">
          <mxGeometry x="45" y="80" width="10" height="450" as="geometry" />
        </mxCell>
        <mxCell id="dnpu99OnODgVlYzdiIvO-46" value="RMIClient" style="shape=umlLifeline;perimeter=lifelinePerimeter;whiteSpace=wrap;html=1;container=0;dropTarget=0;collapsible=0;recursiveResize=0;outlineConnect=0;portConstraint=eastwest;newEdgeStyle={&quot;edgeStyle&quot;:&quot;elbowEdgeStyle&quot;,&quot;elbow&quot;:&quot;vertical&quot;,&quot;curved&quot;:0,&quot;rounded&quot;:0};" vertex="1" parent="1">
          <mxGeometry x="827" y="520" width="100" height="1680" as="geometry" />
        </mxCell>
        <mxCell id="dnpu99OnODgVlYzdiIvO-47" value="" style="html=1;points=[];perimeter=orthogonalPerimeter;outlineConnect=0;targetShapes=umlLifeline;portConstraint=eastwest;newEdgeStyle={&quot;edgeStyle&quot;:&quot;elbowEdgeStyle&quot;,&quot;elbow&quot;:&quot;vertical&quot;,&quot;curved&quot;:0,&quot;rounded&quot;:0};" vertex="1" parent="dnpu99OnODgVlYzdiIvO-46">
          <mxGeometry x="45" y="220" width="10" height="1370" as="geometry" />
        </mxCell>
        <mxCell id="dnpu99OnODgVlYzdiIvO-48" value="RMIServerGamesManager" style="shape=umlLifeline;perimeter=lifelinePerimeter;whiteSpace=wrap;html=1;container=0;dropTarget=0;collapsible=0;recursiveResize=0;outlineConnect=0;portConstraint=eastwest;newEdgeStyle={&quot;edgeStyle&quot;:&quot;elbowEdgeStyle&quot;,&quot;elbow&quot;:&quot;vertical&quot;,&quot;curved&quot;:0,&quot;rounded&quot;:0};" vertex="1" parent="1">
          <mxGeometry x="427" y="520" width="150" height="1680" as="geometry" />
        </mxCell>
        <mxCell id="dnpu99OnODgVlYzdiIvO-49" value="" style="html=1;points=[];perimeter=orthogonalPerimeter;outlineConnect=0;targetShapes=umlLifeline;portConstraint=eastwest;newEdgeStyle={&quot;edgeStyle&quot;:&quot;elbowEdgeStyle&quot;,&quot;elbow&quot;:&quot;vertical&quot;,&quot;curved&quot;:0,&quot;rounded&quot;:0};" vertex="1" parent="dnpu99OnODgVlYzdiIvO-48">
          <mxGeometry x="70" y="178" width="10" height="1412" as="geometry" />
        </mxCell>
        <mxCell id="dnpu99OnODgVlYzdiIvO-56" value="" style="html=1;verticalAlign=bottom;endArrow=block;edgeStyle=elbowEdgeStyle;elbow=vertical;curved=0;rounded=0;" edge="1" parent="1">
          <mxGeometry relative="1" as="geometry">
            <mxPoint x="298.5" y="620" as="sourcePoint" />
            <Array as="points">
              <mxPoint x="223.5" y="620" />
            </Array>
            <mxPoint x="133.5" y="620" as="targetPoint" />
          </mxGeometry>
        </mxCell>
        <mxCell id="dnpu99OnODgVlYzdiIvO-57" value="display UI selection" style="edgeLabel;html=1;align=center;verticalAlign=middle;resizable=0;points=[];" vertex="1" connectable="0" parent="dnpu99OnODgVlYzdiIvO-56">
          <mxGeometry x="0.4152" y="-2" relative="1" as="geometry">
            <mxPoint x="32" y="-8" as="offset" />
          </mxGeometry>
        </mxCell>
        <mxCell id="dnpu99OnODgVlYzdiIvO-58" value="select UI" style="html=1;verticalAlign=bottom;endArrow=open;dashed=1;endSize=8;edgeStyle=elbowEdgeStyle;elbow=vertical;curved=0;rounded=0;" edge="1" parent="1">
          <mxGeometry relative="1" as="geometry">
            <mxPoint x="298.5" y="640" as="targetPoint" />
            <Array as="points">
              <mxPoint x="213.5" y="640" />
            </Array>
            <mxPoint x="133.5" y="640" as="sourcePoint" />
          </mxGeometry>
        </mxCell>
        <mxCell id="dnpu99OnODgVlYzdiIvO-59" value="insert nickname" style="html=1;verticalAlign=bottom;endArrow=open;dashed=1;endSize=8;edgeStyle=elbowEdgeStyle;elbow=vertical;curved=0;rounded=0;" edge="1" parent="1">
          <mxGeometry relative="1" as="geometry">
            <mxPoint x="298.5" y="700" as="targetPoint" />
            <Array as="points">
              <mxPoint x="213.5" y="700" />
            </Array>
            <mxPoint x="133.5" y="700" as="sourcePoint" />
          </mxGeometry>
        </mxCell>
        <mxCell id="dnpu99OnODgVlYzdiIvO-60" value="" style="html=1;verticalAlign=bottom;endArrow=block;edgeStyle=elbowEdgeStyle;elbow=vertical;curved=0;rounded=0;" edge="1" parent="1">
          <mxGeometry relative="1" as="geometry">
            <mxPoint x="298.5" y="680" as="sourcePoint" />
            <Array as="points">
              <mxPoint x="223.5" y="680" />
            </Array>
            <mxPoint x="133.5" y="680" as="targetPoint" />
          </mxGeometry>
        </mxCell>
        <mxCell id="dnpu99OnODgVlYzdiIvO-61" value="display View" style="edgeLabel;html=1;align=center;verticalAlign=middle;resizable=0;points=[];" vertex="1" connectable="0" parent="dnpu99OnODgVlYzdiIvO-60">
          <mxGeometry x="0.4152" y="-2" relative="1" as="geometry">
            <mxPoint x="32" y="-8" as="offset" />
          </mxGeometry>
        </mxCell>
        <mxCell id="dnpu99OnODgVlYzdiIvO-62" value="" style="endArrow=classic;html=1;rounded=0;" edge="1" parent="1">
          <mxGeometry width="50" height="50" relative="1" as="geometry">
            <mxPoint x="300" y="724.66" as="sourcePoint" />
            <mxPoint x="501.5000000000002" y="724.66" as="targetPoint" />
          </mxGeometry>
        </mxCell>
        <mxCell id="dnpu99OnODgVlYzdiIvO-63" value="checkNickname(nickname)" style="text;html=1;align=center;verticalAlign=middle;resizable=0;points=[];autosize=1;strokeColor=none;fillColor=none;" vertex="1" parent="1">
          <mxGeometry x="310" y="698" width="170" height="30" as="geometry" />
        </mxCell>
        <mxCell id="dnpu99OnODgVlYzdiIvO-64" value="" style="endArrow=classic;html=1;rounded=0;" edge="1" parent="1">
          <mxGeometry width="50" height="50" relative="1" as="geometry">
            <mxPoint x="497" y="760" as="sourcePoint" />
            <mxPoint x="299.81034482758616" y="760" as="targetPoint" />
          </mxGeometry>
        </mxCell>
        <mxCell id="dnpu99OnODgVlYzdiIvO-65" value="check result" style="text;html=1;align=center;verticalAlign=middle;resizable=0;points=[];autosize=1;strokeColor=none;fillColor=none;" vertex="1" parent="1">
          <mxGeometry x="360" y="738" width="90" height="30" as="geometry" />
        </mxCell>
        <mxCell id="dnpu99OnODgVlYzdiIvO-67" value="" style="endArrow=classic;html=1;rounded=0;" edge="1" parent="1" source="dnpu99OnODgVlYzdiIvO-49" target="dnpu99OnODgVlYzdiIvO-46">
          <mxGeometry width="50" height="50" relative="1" as="geometry">
            <mxPoint x="510" y="780" as="sourcePoint" />
            <mxPoint x="450" y="730" as="targetPoint" />
            <Array as="points">
              <mxPoint x="560" y="780" />
            </Array>
          </mxGeometry>
        </mxCell>
        <mxCell id="dnpu99OnODgVlYzdiIvO-68" value="new RmiClient()" style="text;html=1;align=center;verticalAlign=middle;resizable=0;points=[];autosize=1;strokeColor=none;fillColor=none;" vertex="1" parent="1">
          <mxGeometry x="540" y="758" width="110" height="30" as="geometry" />
        </mxCell>
        <mxCell id="dnpu99OnODgVlYzdiIvO-70" value="" style="endArrow=classic;html=1;rounded=0;" edge="1" parent="1" target="dnpu99OnODgVlYzdiIvO-46">
          <mxGeometry width="50" height="50" relative="1" as="geometry">
            <mxPoint x="297.25" y="830" as="sourcePoint" />
            <mxPoint x="706.75" y="830" as="targetPoint" />
          </mxGeometry>
        </mxCell>
        <mxCell id="dnpu99OnODgVlYzdiIvO-71" value="connectToGamesManagerServer" style="text;html=1;align=center;verticalAlign=middle;resizable=0;points=[];autosize=1;strokeColor=none;fillColor=none;" vertex="1" parent="1">
          <mxGeometry x="317" y="808" width="200" height="30" as="geometry" />
        </mxCell>
        <mxCell id="dnpu99OnODgVlYzdiIvO-72" value="" style="endArrow=classic;html=1;rounded=0;" edge="1" parent="1" source="dnpu99OnODgVlYzdiIvO-46">
          <mxGeometry width="50" height="50" relative="1" as="geometry">
            <mxPoint x="660" y="860" as="sourcePoint" />
            <mxPoint x="500" y="860" as="targetPoint" />
            <Array as="points">
              <mxPoint x="700" y="860" />
            </Array>
          </mxGeometry>
        </mxCell>
        <mxCell id="dnpu99OnODgVlYzdiIvO-73" value="setAndExecuteCommand(AddPlayerToPendingCommand)" style="text;html=1;align=center;verticalAlign=middle;resizable=0;points=[];autosize=1;strokeColor=none;fillColor=none;" vertex="1" parent="1">
          <mxGeometry x="510" y="838" width="340" height="30" as="geometry" />
        </mxCell>
        <mxCell id="dnpu99OnODgVlYzdiIvO-74" value="" style="endArrow=classic;html=1;rounded=0;" edge="1" parent="1">
          <mxGeometry width="50" height="50" relative="1" as="geometry">
            <mxPoint x="870.19" y="949.5" as="sourcePoint" />
            <mxPoint x="500.0003448275863" y="949.5" as="targetPoint" />
          </mxGeometry>
        </mxCell>
        <mxCell id="dnpu99OnODgVlYzdiIvO-76" value="connect" style="text;html=1;align=center;verticalAlign=middle;resizable=0;points=[];autosize=1;strokeColor=none;fillColor=none;" vertex="1" parent="1">
          <mxGeometry x="659" y="926" width="70" height="30" as="geometry" />
        </mxCell>
        <mxCell id="dnpu99OnODgVlYzdiIvO-77" value="GamesManager" style="shape=umlLifeline;perimeter=lifelinePerimeter;whiteSpace=wrap;html=1;container=0;dropTarget=0;collapsible=0;recursiveResize=0;outlineConnect=0;portConstraint=eastwest;newEdgeStyle={&quot;edgeStyle&quot;:&quot;elbowEdgeStyle&quot;,&quot;elbow&quot;:&quot;vertical&quot;,&quot;curved&quot;:0,&quot;rounded&quot;:0};" vertex="1" parent="1">
          <mxGeometry x="1050" y="520" width="100" height="1680" as="geometry" />
        </mxCell>
        <mxCell id="dnpu99OnODgVlYzdiIvO-78" value="" style="html=1;points=[];perimeter=orthogonalPerimeter;outlineConnect=0;targetShapes=umlLifeline;portConstraint=eastwest;newEdgeStyle={&quot;edgeStyle&quot;:&quot;elbowEdgeStyle&quot;,&quot;elbow&quot;:&quot;vertical&quot;,&quot;curved&quot;:0,&quot;rounded&quot;:0};" vertex="1" parent="dnpu99OnODgVlYzdiIvO-77">
          <mxGeometry x="45" y="360" width="10" height="1170" as="geometry" />
        </mxCell>
        <mxCell id="dnpu99OnODgVlYzdiIvO-79" value="" style="endArrow=classic;html=1;rounded=0;" edge="1" parent="1">
          <mxGeometry width="50" height="50" relative="1" as="geometry">
            <mxPoint x="500" y="986" as="sourcePoint" />
            <mxPoint x="1099.5" y="986" as="targetPoint" />
          </mxGeometry>
        </mxCell>
        <mxCell id="dnpu99OnODgVlYzdiIvO-80" value="addVirtualView()" style="text;html=1;align=center;verticalAlign=middle;resizable=0;points=[];autosize=1;strokeColor=none;fillColor=none;" vertex="1" parent="1">
          <mxGeometry x="703" y="961" width="110" height="30" as="geometry" />
        </mxCell>
        <mxCell id="dnpu99OnODgVlYzdiIvO-81" value="" style="endArrow=classic;html=1;rounded=0;" edge="1" parent="1" target="dnpu99OnODgVlYzdiIvO-77">
          <mxGeometry width="50" height="50" relative="1" as="geometry">
            <mxPoint x="500" y="910" as="sourcePoint" />
            <mxPoint x="550" y="860" as="targetPoint" />
          </mxGeometry>
        </mxCell>
        <mxCell id="dnpu99OnODgVlYzdiIvO-82" value="addPlayerToPending()" style="text;html=1;align=center;verticalAlign=middle;resizable=0;points=[];autosize=1;strokeColor=none;fillColor=none;" vertex="1" parent="1">
          <mxGeometry x="659" y="885" width="140" height="30" as="geometry" />
        </mxCell>
        <mxCell id="dnpu99OnODgVlYzdiIvO-83" value="Ui" style="shape=umlLifeline;perimeter=lifelinePerimeter;whiteSpace=wrap;html=1;container=0;dropTarget=0;collapsible=0;recursiveResize=0;outlineConnect=0;portConstraint=eastwest;newEdgeStyle={&quot;edgeStyle&quot;:&quot;elbowEdgeStyle&quot;,&quot;elbow&quot;:&quot;vertical&quot;,&quot;curved&quot;:0,&quot;rounded&quot;:0};" vertex="1" parent="1">
          <mxGeometry x="1241" y="520" width="100" height="1680" as="geometry" />
        </mxCell>
        <mxCell id="dnpu99OnODgVlYzdiIvO-84" value="" style="html=1;points=[];perimeter=orthogonalPerimeter;outlineConnect=0;targetShapes=umlLifeline;portConstraint=eastwest;newEdgeStyle={&quot;edgeStyle&quot;:&quot;elbowEdgeStyle&quot;,&quot;elbow&quot;:&quot;vertical&quot;,&quot;curved&quot;:0,&quot;rounded&quot;:0};" vertex="1" parent="dnpu99OnODgVlYzdiIvO-83">
          <mxGeometry x="45" y="500" width="10" height="790" as="geometry" />
        </mxCell>
        <mxCell id="dnpu99OnODgVlYzdiIvO-85" value="" style="endArrow=classic;html=1;rounded=0;" edge="1" parent="1" target="dnpu99OnODgVlYzdiIvO-83">
          <mxGeometry width="50" height="50" relative="1" as="geometry">
            <mxPoint x="300" y="1038.57" as="sourcePoint" />
            <mxPoint x="920.5" y="1038.57" as="targetPoint" />
          </mxGeometry>
        </mxCell>
        <mxCell id="dnpu99OnODgVlYzdiIvO-86" value="runJoinGameInterface" style="text;html=1;align=center;verticalAlign=middle;resizable=0;points=[];autosize=1;strokeColor=none;fillColor=none;" vertex="1" parent="1">
          <mxGeometry x="610" y="1010" width="140" height="30" as="geometry" />
        </mxCell>
        <mxCell id="dnpu99OnODgVlYzdiIvO-89" value="" style="endArrow=classic;html=1;rounded=0;" edge="1" parent="1">
          <mxGeometry width="50" height="50" relative="1" as="geometry">
            <mxPoint x="1290" y="1080" as="sourcePoint" />
            <mxPoint x="129.07142857142867" y="1080" as="targetPoint" />
          </mxGeometry>
        </mxCell>
        <mxCell id="dnpu99OnODgVlYzdiIvO-90" value="display join game interface" style="text;html=1;align=center;verticalAlign=middle;resizable=0;points=[];autosize=1;strokeColor=none;fillColor=none;" vertex="1" parent="1">
          <mxGeometry x="595" y="1052" width="170" height="30" as="geometry" />
        </mxCell>
        <mxCell id="dnpu99OnODgVlYzdiIvO-92" value="user input" style="html=1;verticalAlign=bottom;endArrow=open;dashed=1;endSize=8;edgeStyle=elbowEdgeStyle;elbow=vertical;curved=0;rounded=0;" edge="1" parent="1" target="dnpu99OnODgVlYzdiIvO-83">
          <mxGeometry relative="1" as="geometry">
            <mxPoint x="295" y="1120" as="targetPoint" />
            <Array as="points">
              <mxPoint x="210" y="1120" />
            </Array>
            <mxPoint x="130" y="1120" as="sourcePoint" />
          </mxGeometry>
        </mxCell>
        <mxCell id="dnpu99OnODgVlYzdiIvO-94" value="" style="endArrow=classic;html=1;rounded=0;" edge="1" parent="1">
          <mxGeometry width="50" height="50" relative="1" as="geometry">
            <mxPoint x="1290.4999999999995" y="1160" as="sourcePoint" />
            <mxPoint x="876.3235294117646" y="1160" as="targetPoint" />
          </mxGeometry>
        </mxCell>
        <mxCell id="dnpu99OnODgVlYzdiIvO-95" value="setAndExecuteCommand(DisplayExistinGamesCommand)" style="text;html=1;align=center;verticalAlign=middle;resizable=0;points=[];autosize=1;strokeColor=none;fillColor=none;" vertex="1" parent="1">
          <mxGeometry x="930" y="1135" width="340" height="30" as="geometry" />
        </mxCell>
        <mxCell id="dnpu99OnODgVlYzdiIvO-96" value="" style="endArrow=classic;html=1;rounded=0;" edge="1" parent="1" target="dnpu99OnODgVlYzdiIvO-48">
          <mxGeometry width="50" height="50" relative="1" as="geometry">
            <mxPoint x="880" y="1190" as="sourcePoint" />
            <mxPoint x="670" y="1190" as="targetPoint" />
          </mxGeometry>
        </mxCell>
        <mxCell id="dnpu99OnODgVlYzdiIvO-97" value="setAndExecuteCommand(command)" style="text;html=1;align=center;verticalAlign=middle;resizable=0;points=[];autosize=1;strokeColor=none;fillColor=none;" vertex="1" parent="1">
          <mxGeometry x="570" y="1167" width="220" height="30" as="geometry" />
        </mxCell>
        <mxCell id="dnpu99OnODgVlYzdiIvO-100" value="" style="endArrow=classic;html=1;rounded=0;" edge="1" parent="1" target="dnpu99OnODgVlYzdiIvO-78">
          <mxGeometry width="50" height="50" relative="1" as="geometry">
            <mxPoint x="500" y="1250" as="sourcePoint" />
            <mxPoint x="550" y="1200" as="targetPoint" />
          </mxGeometry>
        </mxCell>
        <mxCell id="dnpu99OnODgVlYzdiIvO-101" value="setAndExecuteCommand(command)" style="text;html=1;align=center;verticalAlign=middle;resizable=0;points=[];autosize=1;strokeColor=none;fillColor=none;" vertex="1" parent="1">
          <mxGeometry x="610" y="1226" width="220" height="30" as="geometry" />
        </mxCell>
        <mxCell id="dnpu99OnODgVlYzdiIvO-102" value="DisplayExistingGamesCommand" style="shape=umlLifeline;perimeter=lifelinePerimeter;whiteSpace=wrap;html=1;container=0;dropTarget=0;collapsible=0;recursiveResize=0;outlineConnect=0;portConstraint=eastwest;newEdgeStyle={&quot;edgeStyle&quot;:&quot;elbowEdgeStyle&quot;,&quot;elbow&quot;:&quot;vertical&quot;,&quot;curved&quot;:0,&quot;rounded&quot;:0};" vertex="1" parent="1">
          <mxGeometry x="1430" y="520" width="190" height="1680" as="geometry" />
        </mxCell>
        <mxCell id="dnpu99OnODgVlYzdiIvO-103" value="" style="html=1;points=[];perimeter=orthogonalPerimeter;outlineConnect=0;targetShapes=umlLifeline;portConstraint=eastwest;newEdgeStyle={&quot;edgeStyle&quot;:&quot;elbowEdgeStyle&quot;,&quot;elbow&quot;:&quot;vertical&quot;,&quot;curved&quot;:0,&quot;rounded&quot;:0};" vertex="1" parent="dnpu99OnODgVlYzdiIvO-102">
          <mxGeometry x="90" y="700" width="10" height="170" as="geometry" />
        </mxCell>
        <mxCell id="dnpu99OnODgVlYzdiIvO-104" value="" style="endArrow=classic;html=1;rounded=0;" edge="1" parent="1">
          <mxGeometry width="50" height="50" relative="1" as="geometry">
            <mxPoint x="1100" y="1300" as="sourcePoint" />
            <mxPoint x="1524.4999999999995" y="1300" as="targetPoint" />
          </mxGeometry>
        </mxCell>
        <mxCell id="dnpu99OnODgVlYzdiIvO-105" value="execute" style="text;html=1;align=center;verticalAlign=middle;resizable=0;points=[];autosize=1;strokeColor=none;fillColor=none;" vertex="1" parent="1">
          <mxGeometry x="1305" y="1276" width="70" height="30" as="geometry" />
        </mxCell>
        <mxCell id="dnpu99OnODgVlYzdiIvO-106" value="" style="endArrow=classic;html=1;rounded=0;" edge="1" parent="1" target="dnpu99OnODgVlYzdiIvO-77">
          <mxGeometry width="50" height="50" relative="1" as="geometry">
            <mxPoint x="1530" y="1350" as="sourcePoint" />
            <mxPoint x="1290" y="1350" as="targetPoint" />
          </mxGeometry>
        </mxCell>
        <mxCell id="dnpu99OnODgVlYzdiIvO-107" value="displayExistingGames" style="text;html=1;align=center;verticalAlign=middle;resizable=0;points=[];autosize=1;strokeColor=none;fillColor=none;" vertex="1" parent="1">
          <mxGeometry x="1236" y="1325" width="140" height="30" as="geometry" />
        </mxCell>
        <mxCell id="dnpu99OnODgVlYzdiIvO-108" value="" style="endArrow=classic;html=1;rounded=0;" edge="1" parent="1">
          <mxGeometry width="50" height="50" relative="1" as="geometry">
            <mxPoint x="1098.5" y="1390" as="sourcePoint" />
            <mxPoint x="880" y="1390" as="targetPoint" />
          </mxGeometry>
        </mxCell>
        <mxCell id="dnpu99OnODgVlYzdiIvO-109" value="receiveExistingGamesUpdate(update)" style="text;html=1;align=center;verticalAlign=middle;resizable=0;points=[];autosize=1;strokeColor=none;fillColor=none;" vertex="1" parent="1">
          <mxGeometry x="873" y="1366" width="230" height="30" as="geometry" />
        </mxCell>
        <mxCell id="dnpu99OnODgVlYzdiIvO-111" value="" style="endArrow=classic;html=1;rounded=0;" edge="1" parent="1">
          <mxGeometry width="50" height="50" relative="1" as="geometry">
            <mxPoint x="878.25" y="1410" as="sourcePoint" />
            <mxPoint x="873.75" y="1450" as="targetPoint" />
            <Array as="points">
              <mxPoint x="743.75" y="1410" />
              <mxPoint x="743.75" y="1450" />
            </Array>
          </mxGeometry>
        </mxCell>
        <mxCell id="dnpu99OnODgVlYzdiIvO-112" value="receiveUpdate(update)" style="text;html=1;align=center;verticalAlign=middle;resizable=0;points=[];autosize=1;strokeColor=none;fillColor=none;" vertex="1" parent="1">
          <mxGeometry x="733" y="1386" width="150" height="30" as="geometry" />
        </mxCell>
        <mxCell id="dnpu99OnODgVlYzdiIvO-113" value="ExistingGamesUpdate" style="shape=umlLifeline;perimeter=lifelinePerimeter;whiteSpace=wrap;html=1;container=0;dropTarget=0;collapsible=0;recursiveResize=0;outlineConnect=0;portConstraint=eastwest;newEdgeStyle={&quot;edgeStyle&quot;:&quot;elbowEdgeStyle&quot;,&quot;elbow&quot;:&quot;vertical&quot;,&quot;curved&quot;:0,&quot;rounded&quot;:0};" vertex="1" parent="1">
          <mxGeometry x="1710" y="520" width="140" height="1680" as="geometry" />
        </mxCell>
        <mxCell id="dnpu99OnODgVlYzdiIvO-114" value="" style="html=1;points=[];perimeter=orthogonalPerimeter;outlineConnect=0;targetShapes=umlLifeline;portConstraint=eastwest;newEdgeStyle={&quot;edgeStyle&quot;:&quot;elbowEdgeStyle&quot;,&quot;elbow&quot;:&quot;vertical&quot;,&quot;curved&quot;:0,&quot;rounded&quot;:0};" vertex="1" parent="dnpu99OnODgVlYzdiIvO-113">
          <mxGeometry x="65" y="835" width="10" height="265" as="geometry" />
        </mxCell>
        <mxCell id="dnpu99OnODgVlYzdiIvO-115" value="" style="endArrow=classic;html=1;rounded=0;" edge="1" parent="1">
          <mxGeometry width="50" height="50" relative="1" as="geometry">
            <mxPoint x="878" y="1550" as="sourcePoint" />
            <mxPoint x="1775.4999999999995" y="1550" as="targetPoint" />
          </mxGeometry>
        </mxCell>
        <mxCell id="dnpu99OnODgVlYzdiIvO-116" value="execute" style="text;html=1;align=center;verticalAlign=middle;resizable=0;points=[];autosize=1;strokeColor=none;fillColor=none;" vertex="1" parent="1">
          <mxGeometry x="1291" y="1525" width="70" height="30" as="geometry" />
        </mxCell>
        <mxCell id="dnpu99OnODgVlYzdiIvO-117" value="GameView" style="shape=umlLifeline;perimeter=lifelinePerimeter;whiteSpace=wrap;html=1;container=0;dropTarget=0;collapsible=0;recursiveResize=0;outlineConnect=0;portConstraint=eastwest;newEdgeStyle={&quot;edgeStyle&quot;:&quot;elbowEdgeStyle&quot;,&quot;elbow&quot;:&quot;vertical&quot;,&quot;curved&quot;:0,&quot;rounded&quot;:0};" vertex="1" parent="1">
          <mxGeometry x="1920" y="520" width="140" height="1680" as="geometry" />
        </mxCell>
        <mxCell id="dnpu99OnODgVlYzdiIvO-118" value="" style="html=1;points=[];perimeter=orthogonalPerimeter;outlineConnect=0;targetShapes=umlLifeline;portConstraint=eastwest;newEdgeStyle={&quot;edgeStyle&quot;:&quot;elbowEdgeStyle&quot;,&quot;elbow&quot;:&quot;vertical&quot;,&quot;curved&quot;:0,&quot;rounded&quot;:0};" vertex="1" parent="dnpu99OnODgVlYzdiIvO-117">
          <mxGeometry x="65" y="1040" width="10" height="120" as="geometry" />
        </mxCell>
        <mxCell id="dnpu99OnODgVlYzdiIvO-119" value="" style="endArrow=classic;html=1;rounded=0;" edge="1" parent="1">
          <mxGeometry width="50" height="50" relative="1" as="geometry">
            <mxPoint x="1780" y="1590" as="sourcePoint" />
            <mxPoint x="1989.4999999999995" y="1590" as="targetPoint" />
          </mxGeometry>
        </mxCell>
        <mxCell id="dnpu99OnODgVlYzdiIvO-120" value="" style="endArrow=classic;html=1;rounded=0;" edge="1" parent="1">
          <mxGeometry width="50" height="50" relative="1" as="geometry">
            <mxPoint x="1990.68" y="1650" as="sourcePoint" />
            <mxPoint x="1291.0035294117645" y="1650" as="targetPoint" />
          </mxGeometry>
        </mxCell>
        <mxCell id="dnpu99OnODgVlYzdiIvO-121" value="receiveExistingGamesUpdate" style="text;html=1;align=center;verticalAlign=middle;resizable=0;points=[];autosize=1;strokeColor=none;fillColor=none;" vertex="1" parent="1">
          <mxGeometry x="1480" y="1621" width="180" height="30" as="geometry" />
        </mxCell>
        <mxCell id="dnpu99OnODgVlYzdiIvO-122" value="displayExistingGames" style="text;html=1;align=center;verticalAlign=middle;resizable=0;points=[];autosize=1;strokeColor=none;fillColor=none;" vertex="1" parent="1">
          <mxGeometry x="1820" y="1565" width="140" height="30" as="geometry" />
        </mxCell>
        <mxCell id="dnpu99OnODgVlYzdiIvO-123" value="" style="endArrow=classic;html=1;rounded=0;" edge="1" parent="1">
          <mxGeometry width="50" height="50" relative="1" as="geometry">
            <mxPoint x="1290" y="1688" as="sourcePoint" />
            <mxPoint x="129.07142857142867" y="1688" as="targetPoint" />
          </mxGeometry>
        </mxCell>
        <mxCell id="dnpu99OnODgVlYzdiIvO-124" value="display join game interface" style="text;html=1;align=center;verticalAlign=middle;resizable=0;points=[];autosize=1;strokeColor=none;fillColor=none;" vertex="1" parent="1">
          <mxGeometry x="595" y="1660" width="170" height="30" as="geometry" />
        </mxCell>
        <mxCell id="dnpu99OnODgVlYzdiIvO-125" value="user input" style="html=1;verticalAlign=bottom;endArrow=open;dashed=1;endSize=8;edgeStyle=elbowEdgeStyle;elbow=vertical;curved=0;rounded=0;" edge="1" parent="1">
          <mxGeometry relative="1" as="geometry">
            <mxPoint x="1291" y="1728" as="targetPoint" />
            <Array as="points">
              <mxPoint x="210" y="1728" />
            </Array>
            <mxPoint x="130" y="1728" as="sourcePoint" />
          </mxGeometry>
        </mxCell>
        <mxCell id="dnpu99OnODgVlYzdiIvO-126" value="" style="endArrow=classic;html=1;rounded=0;" edge="1" parent="1" target="dnpu99OnODgVlYzdiIvO-47">
          <mxGeometry width="50" height="50" relative="1" as="geometry">
            <mxPoint x="1291" y="1780" as="sourcePoint" />
            <mxPoint x="1031" y="1780" as="targetPoint" />
          </mxGeometry>
        </mxCell>
        <mxCell id="dnpu99OnODgVlYzdiIvO-127" value="setAndExecuteCommand(joinGameCommand)" style="text;html=1;align=center;verticalAlign=middle;resizable=0;points=[];autosize=1;strokeColor=none;fillColor=none;" vertex="1" parent="1">
          <mxGeometry x="930" y="1754" width="270" height="30" as="geometry" />
        </mxCell>
        <mxCell id="dnpu99OnODgVlYzdiIvO-128" value="" style="endArrow=classic;html=1;rounded=0;" edge="1" parent="1">
          <mxGeometry width="50" height="50" relative="1" as="geometry">
            <mxPoint x="880" y="1813" as="sourcePoint" />
            <mxPoint x="501" y="1813" as="targetPoint" />
          </mxGeometry>
        </mxCell>
        <mxCell id="dnpu99OnODgVlYzdiIvO-129" value="setAndExecuteCommand(command)" style="text;html=1;align=center;verticalAlign=middle;resizable=0;points=[];autosize=1;strokeColor=none;fillColor=none;" vertex="1" parent="1">
          <mxGeometry x="570" y="1790" width="220" height="30" as="geometry" />
        </mxCell>
        <mxCell id="dnpu99OnODgVlYzdiIvO-130" value="" style="endArrow=classic;html=1;rounded=0;" edge="1" parent="1">
          <mxGeometry width="50" height="50" relative="1" as="geometry">
            <mxPoint x="500" y="1873" as="sourcePoint" />
            <mxPoint x="1095" y="1873" as="targetPoint" />
          </mxGeometry>
        </mxCell>
        <mxCell id="dnpu99OnODgVlYzdiIvO-131" value="setAndExecuteCommand(command)" style="text;html=1;align=center;verticalAlign=middle;resizable=0;points=[];autosize=1;strokeColor=none;fillColor=none;" vertex="1" parent="1">
          <mxGeometry x="610" y="1849" width="220" height="30" as="geometry" />
        </mxCell>
        <mxCell id="dnpu99OnODgVlYzdiIvO-132" value="JoinXGameCommand" style="shape=umlLifeline;perimeter=lifelinePerimeter;whiteSpace=wrap;html=1;container=0;dropTarget=0;collapsible=0;recursiveResize=0;outlineConnect=0;portConstraint=eastwest;newEdgeStyle={&quot;edgeStyle&quot;:&quot;elbowEdgeStyle&quot;,&quot;elbow&quot;:&quot;vertical&quot;,&quot;curved&quot;:0,&quot;rounded&quot;:0};" vertex="1" parent="1">
          <mxGeometry x="2140" y="520" width="190" height="1680" as="geometry" />
        </mxCell>
        <mxCell id="dnpu99OnODgVlYzdiIvO-133" value="" style="html=1;points=[];perimeter=orthogonalPerimeter;outlineConnect=0;targetShapes=umlLifeline;portConstraint=eastwest;newEdgeStyle={&quot;edgeStyle&quot;:&quot;elbowEdgeStyle&quot;,&quot;elbow&quot;:&quot;vertical&quot;,&quot;curved&quot;:0,&quot;rounded&quot;:0};" vertex="1" parent="dnpu99OnODgVlYzdiIvO-132">
          <mxGeometry x="90" y="1380" width="10" height="110" as="geometry" />
        </mxCell>
        <mxCell id="dnpu99OnODgVlYzdiIvO-134" value="" style="endArrow=classic;html=1;rounded=0;" edge="1" parent="1" target="dnpu99OnODgVlYzdiIvO-133">
          <mxGeometry width="50" height="50" relative="1" as="geometry">
            <mxPoint x="1100" y="1930" as="sourcePoint" />
            <mxPoint x="1150" y="1880" as="targetPoint" />
          </mxGeometry>
        </mxCell>
        <mxCell id="dnpu99OnODgVlYzdiIvO-135" value="execute" style="text;html=1;align=center;verticalAlign=middle;resizable=0;points=[];autosize=1;strokeColor=none;fillColor=none;" vertex="1" parent="1">
          <mxGeometry x="1595" y="1904" width="70" height="30" as="geometry" />
        </mxCell>
        <mxCell id="dnpu99OnODgVlYzdiIvO-136" value="" style="endArrow=classic;html=1;rounded=0;" edge="1" parent="1">
          <mxGeometry width="50" height="50" relative="1" as="geometry">
            <mxPoint x="2234.5" y="1980" as="sourcePoint" />
            <mxPoint x="1100" y="1980" as="targetPoint" />
          </mxGeometry>
        </mxCell>
        <mxCell id="dnpu99OnODgVlYzdiIvO-137" value="joinXGame" style="text;html=1;align=center;verticalAlign=middle;resizable=0;points=[];autosize=1;strokeColor=none;fillColor=none;" vertex="1" parent="1">
          <mxGeometry x="1600" y="1955" width="80" height="30" as="geometry" />
        </mxCell>
        <mxCell id="dnpu99OnODgVlYzdiIvO-138" value="" style="endArrow=classic;html=1;rounded=0;" edge="1" parent="1">
          <mxGeometry width="50" height="50" relative="1" as="geometry">
            <mxPoint x="1097.38" y="2010" as="sourcePoint" />
            <mxPoint x="878.63" y="2010" as="targetPoint" />
            <Array as="points">
              <mxPoint x="1062.38" y="2010" />
            </Array>
          </mxGeometry>
        </mxCell>
        <mxCell id="dnpu99OnODgVlYzdiIvO-139" value="setServerGame(gameId)" style="text;html=1;align=center;verticalAlign=middle;resizable=0;points=[];autosize=1;strokeColor=none;fillColor=none;" vertex="1" parent="1">
          <mxGeometry x="900" y="1985" width="160" height="30" as="geometry" />
        </mxCell>
        <mxCell id="dnpu99OnODgVlYzdiIvO-140" value="" style="endArrow=classic;html=1;rounded=0;" edge="1" parent="1" target="dnpu99OnODgVlYzdiIvO-48">
          <mxGeometry width="50" height="50" relative="1" as="geometry">
            <mxPoint x="877" y="2050" as="sourcePoint" />
            <mxPoint x="577" y="2050" as="targetPoint" />
          </mxGeometry>
        </mxCell>
        <mxCell id="dnpu99OnODgVlYzdiIvO-141" value="getGameServer(gameId)" style="text;html=1;align=center;verticalAlign=middle;resizable=0;points=[];autosize=1;strokeColor=none;fillColor=none;" vertex="1" parent="1">
          <mxGeometry x="613" y="2023" width="160" height="30" as="geometry" />
        </mxCell>
        <mxCell id="dnpu99OnODgVlYzdiIvO-142" value="" style="endArrow=classic;html=1;rounded=0;" edge="1" parent="1">
          <mxGeometry width="50" height="50" relative="1" as="geometry">
            <mxPoint x="503.72736842105246" y="2090.0000000000005" as="sourcePoint" />
            <mxPoint x="882.28" y="2090" as="targetPoint" />
          </mxGeometry>
        </mxCell>
        <mxCell id="dnpu99OnODgVlYzdiIvO-143" value="VirtualServerGame" style="text;html=1;align=center;verticalAlign=middle;resizable=0;points=[];autosize=1;strokeColor=none;fillColor=none;" vertex="1" parent="1">
          <mxGeometry x="628" y="2063" width="130" height="30" as="geometry" />
        </mxCell>
      </root>
    </mxGraphModel>
  </diagram>
</mxfile>
